<svg xmlns="http://www.w3.org/2000/svg" width="132.497" height="105.117" viewBox="0 0 132.497 105.117">
  <g id="Group_10" data-name="Group 10" transform="translate(-297.026 138.117)">
    <g id="Component_1_4" data-name="Component 1 – 4" transform="translate(297.526 -137.617)">
      <rect id="Rectangle_2" data-name="Rectangle 2" width="113" height="68" rx="2" transform="translate(8.474 8.749)" fill="#f23a48"/>
      <path id="Path_29" data-name="Path 29" d="M1.312,6.028V-18.48h2.61V-4.507H9.014l7.257-7.925h3.437v.032L11.338-3.2,19.677,6v.032H16.271L9.014-1.9H3.922V6.028Zm24.317,0A3.709,3.709,0,0,1,22.907,4.9a3.709,3.709,0,0,1-1.13-2.721V-8.581a3.709,3.709,0,0,1,1.13-2.721,3.709,3.709,0,0,1,2.721-1.13H36.705a3.747,3.747,0,0,1,2.753,1.13,3.709,3.709,0,0,1,1.13,2.721V2.177A3.709,3.709,0,0,1,39.458,4.9a3.747,3.747,0,0,1-2.753,1.13Zm0-2.61H36.705a1.194,1.194,0,0,0,.875-.366,1.194,1.194,0,0,0,.366-.875V-8.581a1.194,1.194,0,0,0-.366-.875,1.194,1.194,0,0,0-.875-.366H25.629a1.194,1.194,0,0,0-.875.366,1.194,1.194,0,0,0-.366.875V2.177a1.194,1.194,0,0,0,.366.875A1.194,1.194,0,0,0,25.629,3.418Zm21.166,2.61A3.747,3.747,0,0,1,44.041,4.9a3.709,3.709,0,0,1-1.13-2.721V-8.581a3.709,3.709,0,0,1,1.13-2.721,3.747,3.747,0,0,1,2.753-1.13H59.112V-18.48h2.61V6.028Zm0-2.61H57.871a1.194,1.194,0,0,0,.875-.366,1.194,1.194,0,0,0,.366-.875V-8.581a1.194,1.194,0,0,0-.366-.875,1.194,1.194,0,0,0-.875-.366H46.795a1.194,1.194,0,0,0-.875.366,1.194,1.194,0,0,0-.366.875V2.177a1.194,1.194,0,0,0,.366.875A1.194,1.194,0,0,0,46.795,3.418Zm21.452,2.61A3.709,3.709,0,0,1,65.526,4.9,3.709,3.709,0,0,1,64.4,2.177V-8.581a3.709,3.709,0,0,1,1.13-2.721,3.709,3.709,0,0,1,2.721-1.13H79.323a3.747,3.747,0,0,1,2.753,1.13,3.709,3.709,0,0,1,1.13,2.721V-1.9h-16.2V2.177a1.194,1.194,0,0,0,.366.875,1.194,1.194,0,0,0,.875.366H83.207v2.61ZM67.006-4.507H80.565V-8.581a1.194,1.194,0,0,0-.366-.875,1.194,1.194,0,0,0-.875-.366H68.247a1.194,1.194,0,0,0-.875.366,1.194,1.194,0,0,0-.366.875ZM5.736,32.552a4.31,4.31,0,0,1-3.151-1.337,4.31,4.31,0,0,1-1.337-3.151V8.012H5.8V26.95a4.727,4.727,0,0,0,.048,1.019,3.555,3.555,0,0,0,1.034.064H9.619v4.52Zm13.877,0a4.538,4.538,0,0,1-4.488-4.488v-7h14.2V19.693a4.728,4.728,0,0,0-.048-1.019,3.556,3.556,0,0,0-1.034-.064H15.125v-4.52H29.353a4.279,4.279,0,0,1,3.183,1.337,4.362,4.362,0,0,1,1.3,3.151V32.552Zm1.114-4.52h8.594v-2.96H19.645V26.95a3.57,3.57,0,0,0,.064,1.019A3.57,3.57,0,0,0,20.727,28.032Zm18.715,4.52V8.044h4.52v6.047H53.67a4.279,4.279,0,0,1,3.183,1.337,4.362,4.362,0,0,1,1.3,3.151v9.485a4.362,4.362,0,0,1-1.3,3.151,4.279,4.279,0,0,1-3.183,1.337Zm5.6-4.52h7.543a3.354,3.354,0,0,0,1-.064,4.727,4.727,0,0,0,.048-1.019V19.693a4.727,4.727,0,0,0-.048-1.019,3.354,3.354,0,0,0-1-.064H45.044a3.57,3.57,0,0,0-1.019.064,3.57,3.57,0,0,0-.064,1.019V26.95a3.57,3.57,0,0,0,.064,1.019A3.57,3.57,0,0,0,45.044,28.032Zm22.98,4.52a4.566,4.566,0,0,1-4.488-4.488v-.828h4.52V27.4a1.285,1.285,0,0,0,.064.573,1.285,1.285,0,0,0,.573.064h8.435q.509,0,.557-.064a1.682,1.682,0,0,0,.048-.573V26.218a1.682,1.682,0,0,0-.048-.573q-.048-.064-.557-.064h-9.1a4.538,4.538,0,0,1-4.488-4.488V18.579a4.566,4.566,0,0,1,4.488-4.488h9.74a4.537,4.537,0,0,1,4.52,4.488v.828H77.732v-.159a1.682,1.682,0,0,0-.048-.573q-.048-.064-.557-.064H68.693a1.285,1.285,0,0,0-.573.064,1.285,1.285,0,0,0-.064.573v1.178A1.285,1.285,0,0,0,68.12,21a1.285,1.285,0,0,0,.573.064h9.071a4.51,4.51,0,0,1,4.52,4.488v2.514a4.537,4.537,0,0,1-4.52,4.488Z" transform="translate(23.226 35.713)" fill="#1f1f1f" opacity="0.998"/>
      <path id="Path_2" data-name="Path 2" d="M771.265,66.883H748.294V78.631" transform="translate(-748.294 -66.883)" fill="none" stroke="#fff" stroke-linecap="round" stroke-linejoin="round" stroke-width="1"/>
      <path id="Path_5" data-name="Path 5" d="M748.294,66.883h22.971V78.631" transform="translate(-639.767 -66.883)" fill="none" stroke="#fff" stroke-linecap="round" stroke-linejoin="round" stroke-width="1"/>
      <path id="Path_3" data-name="Path 3" d="M11.485,0H0V23.5" transform="translate(0 87.234) rotate(-90)" fill="none" stroke="#fff" stroke-linecap="round" stroke-linejoin="round" stroke-width="1"/>
      <path id="Path_4" data-name="Path 4" d="M13.886,23.5H0V0" transform="translate(108 87.234) rotate(-90)" fill="none" stroke="#fff" stroke-linecap="round" stroke-linejoin="round" stroke-width="1"/>
    </g>
    <path id="Path_33" data-name="Path 33" d="M-35.2-5.76V-3.5h-3.4V-5.76h-1.24V0h1.24V-2.256h3.4V0h1.24V-5.76Zm3.28,1.12a1.171,1.171,0,0,0-1.16,1.16v2.32A1.171,1.171,0,0,0-31.92,0h2.384a1.166,1.166,0,0,0,1.16-1.16V-3.48a1.166,1.166,0,0,0-1.16-1.16Zm.064,1.224H-29.6v2.192h-2.256Zm7.592-1.224v3.416H-26.52V-4.64h-1.224v3.48A1.166,1.166,0,0,0-26.584,0H-24.2a1.166,1.166,0,0,0,1.16-1.16V-4.64Zm5.328-1.52v1.52h-2.328a1.166,1.166,0,0,0-1.16,1.16v2.32A1.166,1.166,0,0,0-21.264,0h3.552V-6.16Zm-2.256,2.744h2.256v2.192h-2.256ZM-16.856,0h1.224V-4.64h-1.224Zm0-6.16v1.232h1.224V-6.16Zm5.712,1.52h-3.544V0h1.224V-3.416h2.256V0h1.224V-3.48A1.166,1.166,0,0,0-11.144-4.64ZM-9.136,0h1.224V-4.64H-9.136Zm0-6.16v1.232h1.224V-6.16Zm9.776.4H-4.68V0H.64V-1.248H-3.424V-2.256H-.152V-3.5H-3.424V-4.512H.64ZM4.872-4.64c-.352.424-.76.912-1.128,1.344L2.608-4.64H1.352v.4l1.6,1.88L1.352-.4V0H2.608L3.744-1.392,4.88,0H6.136V-.4l-.72-.888C5.128-1.64,4.824-2,4.536-2.36l1.6-1.88v-.4Zm5.624,0H6.952V1.84H8.176V0H10.5a1.166,1.166,0,0,0,1.16-1.16V-3.48A1.166,1.166,0,0,0,10.5-4.64ZM8.176-3.416h2.256v2.192H8.176ZM15.784-4.64H13.4a1.171,1.171,0,0,0-1.16,1.16v2.32A1.171,1.171,0,0,0,13.4,0h3.544V-1.224h-3.48V-1.7h3.48V-3.48A1.166,1.166,0,0,0,15.784-4.64Zm-2.32,1.864v-.64H15.72v.64ZM18.9-4.64a1.173,1.173,0,0,0-1.168,1.16V0h1.224V-3.416h2.5V-4.64ZM22.1,0H23.32V-4.64H22.1Zm0-6.16v1.232H23.32V-6.16Zm7.432,1.52H23.944V0h1.224V-3.416H26.7V0h1.232V-3.416h1.536V0h1.216V-3.48A1.166,1.166,0,0,0,29.528-4.64Zm5.44,0H32.584a1.171,1.171,0,0,0-1.16,1.16v2.32A1.171,1.171,0,0,0,32.584,0h3.544V-1.224h-3.48V-1.7h3.48V-3.48A1.166,1.166,0,0,0,34.968-4.64Zm-2.32,1.864v-.64H34.9v.64Zm7.88-1.864H36.984V0h1.224V-3.416h2.256V0h1.224V-3.48A1.166,1.166,0,0,0,40.528-4.64Zm4.96,1.224V-4.64h-1.72V-6.016H42.544V-1.16A1.168,1.168,0,0,0,43.712,0h1.776V-1.224h-1.72V-3.416ZM50.9-3.48a1.168,1.168,0,0,0-1.168-1.16H47.352a1.171,1.171,0,0,0-1.16,1.16v.616a1.171,1.171,0,0,0,1.16,1.16h2.32v.48H47.416v-.168H46.192v.232A1.171,1.171,0,0,0,47.352,0h2.384A1.168,1.168,0,0,0,50.9-1.16v-.616a1.168,1.168,0,0,0-1.168-1.16h-2.32v-.48h2.256v.168H50.9Z" transform="translate(363 -36)" fill="#fff"/>
    <text id="_" data-name="🧙‍♂️" transform="translate(317 -36)" fill="#fff" font-size="8" font-family="AppleColorEmoji, Apple Color Emoji"><tspan x="-5.5" y="0">🧙‍♂️</tspan></text>
  </g>
</svg>
