<svg xmlns="http://www.w3.org/2000/svg" width="132.497" height="88.234" viewBox="0 0 132.497 88.234">
  <g id="Component_1_3" data-name="Component 1 – 3" transform="translate(0.5 0.5)">
    <rect id="Rectangle_2" data-name="Rectangle 2" width="113" height="68" rx="2" transform="translate(8.474 8.749)" fill="#f23a48"/>
    <path id="Path_29" data-name="Path 29" d="M1.312,6.028V-18.48h2.61V-4.507H9.014l7.257-7.925h3.437v.032L11.338-3.2,19.677,6v.032H16.271L9.014-1.9H3.922V6.028Zm24.317,0A3.709,3.709,0,0,1,22.907,4.9a3.709,3.709,0,0,1-1.13-2.721V-8.581a3.709,3.709,0,0,1,1.13-2.721,3.709,3.709,0,0,1,2.721-1.13H36.705a3.747,3.747,0,0,1,2.753,1.13,3.709,3.709,0,0,1,1.13,2.721V2.177A3.709,3.709,0,0,1,39.458,4.9a3.747,3.747,0,0,1-2.753,1.13Zm0-2.61H36.705a1.194,1.194,0,0,0,.875-.366,1.194,1.194,0,0,0,.366-.875V-8.581a1.194,1.194,0,0,0-.366-.875,1.194,1.194,0,0,0-.875-.366H25.629a1.194,1.194,0,0,0-.875.366,1.194,1.194,0,0,0-.366.875V2.177a1.194,1.194,0,0,0,.366.875A1.194,1.194,0,0,0,25.629,3.418Zm21.166,2.61A3.747,3.747,0,0,1,44.041,4.9a3.709,3.709,0,0,1-1.13-2.721V-8.581a3.709,3.709,0,0,1,1.13-2.721,3.747,3.747,0,0,1,2.753-1.13H59.112V-18.48h2.61V6.028Zm0-2.61H57.871a1.194,1.194,0,0,0,.875-.366,1.194,1.194,0,0,0,.366-.875V-8.581a1.194,1.194,0,0,0-.366-.875,1.194,1.194,0,0,0-.875-.366H46.795a1.194,1.194,0,0,0-.875.366,1.194,1.194,0,0,0-.366.875V2.177a1.194,1.194,0,0,0,.366.875A1.194,1.194,0,0,0,46.795,3.418Zm21.452,2.61A3.709,3.709,0,0,1,65.526,4.9,3.709,3.709,0,0,1,64.4,2.177V-8.581a3.709,3.709,0,0,1,1.13-2.721,3.709,3.709,0,0,1,2.721-1.13H79.323a3.747,3.747,0,0,1,2.753,1.13,3.709,3.709,0,0,1,1.13,2.721V-1.9h-16.2V2.177a1.194,1.194,0,0,0,.366.875,1.194,1.194,0,0,0,.875.366H83.207v2.61ZM67.006-4.507H80.565V-8.581a1.194,1.194,0,0,0-.366-.875,1.194,1.194,0,0,0-.875-.366H68.247a1.194,1.194,0,0,0-.875.366,1.194,1.194,0,0,0-.366.875ZM5.736,32.552a4.31,4.31,0,0,1-3.151-1.337,4.31,4.31,0,0,1-1.337-3.151V8.012H5.8V26.95a4.727,4.727,0,0,0,.048,1.019,3.555,3.555,0,0,0,1.034.064H9.619v4.52Zm13.877,0a4.538,4.538,0,0,1-4.488-4.488v-7h14.2V19.693a4.728,4.728,0,0,0-.048-1.019,3.556,3.556,0,0,0-1.034-.064H15.125v-4.52H29.353a4.279,4.279,0,0,1,3.183,1.337,4.362,4.362,0,0,1,1.3,3.151V32.552Zm1.114-4.52h8.594v-2.96H19.645V26.95a3.57,3.57,0,0,0,.064,1.019A3.57,3.57,0,0,0,20.727,28.032Zm18.715,4.52V8.044h4.52v6.047H53.67a4.279,4.279,0,0,1,3.183,1.337,4.362,4.362,0,0,1,1.3,3.151v9.485a4.362,4.362,0,0,1-1.3,3.151,4.279,4.279,0,0,1-3.183,1.337Zm5.6-4.52h7.543a3.354,3.354,0,0,0,1-.064,4.727,4.727,0,0,0,.048-1.019V19.693a4.727,4.727,0,0,0-.048-1.019,3.354,3.354,0,0,0-1-.064H45.044a3.57,3.57,0,0,0-1.019.064,3.57,3.57,0,0,0-.064,1.019V26.95a3.57,3.57,0,0,0,.064,1.019A3.57,3.57,0,0,0,45.044,28.032Zm22.98,4.52a4.566,4.566,0,0,1-4.488-4.488v-.828h4.52V27.4a1.285,1.285,0,0,0,.064.573,1.285,1.285,0,0,0,.573.064h8.435q.509,0,.557-.064a1.682,1.682,0,0,0,.048-.573V26.218a1.682,1.682,0,0,0-.048-.573q-.048-.064-.557-.064h-9.1a4.538,4.538,0,0,1-4.488-4.488V18.579a4.566,4.566,0,0,1,4.488-4.488h9.74a4.537,4.537,0,0,1,4.52,4.488v.828H77.732v-.159a1.682,1.682,0,0,0-.048-.573q-.048-.064-.557-.064H68.693a1.285,1.285,0,0,0-.573.064,1.285,1.285,0,0,0-.064.573v1.178A1.285,1.285,0,0,0,68.12,21a1.285,1.285,0,0,0,.573.064h9.071a4.51,4.51,0,0,1,4.52,4.488v2.514a4.537,4.537,0,0,1-4.52,4.488Z" transform="translate(23.226 35.713)" fill="#1f1f1f" opacity="0.998"/>
    <path id="Path_2" data-name="Path 2" d="M771.265,66.883H748.294V78.631" transform="translate(-748.294 -66.883)" fill="none" stroke="#fff" stroke-linecap="round" stroke-linejoin="round" stroke-width="1"/>
    <path id="Path_5" data-name="Path 5" d="M748.294,66.883h22.971V78.631" transform="translate(-639.767 -66.883)" fill="none" stroke="#fff" stroke-linecap="round" stroke-linejoin="round" stroke-width="1"/>
    <path id="Path_3" data-name="Path 3" d="M11.485,0H0V23.5" transform="translate(0 87.234) rotate(-90)" fill="none" stroke="#fff" stroke-linecap="round" stroke-linejoin="round" stroke-width="1"/>
    <path id="Path_4" data-name="Path 4" d="M13.886,23.5H0V0" transform="translate(108 87.234) rotate(-90)" fill="none" stroke="#fff" stroke-linecap="round" stroke-linejoin="round" stroke-width="1"/>
  </g>
</svg>
